<?xml version="1.0" encoding="UTF-8" standalone="no"?>
<svg
   xmlns="http://www.w3.org/2000/svg"
   id="b3c5850d-3d23-4aad-a12c-b5e8440d4fde"
   width="600"
   height="458.1275"
   viewBox="0 0 600 458.12749"
   version="1.1">
  <defs
     id="defs83" />
  <ellipse
     cx="-268.37848"
     cy="311.72803"
     rx="21.533689"
     ry="6.7600698"
     transform="rotate(-69.08217)"
     fill="#2f2e41"
     id="ellipse2" />
  <circle
     cx="-364.49692"
     cy="216.7417"
     r="43.067348"
     transform="rotate(-80.78252)"
     fill="#2f2e41"
     id="circle4" />
  <rect
     x="135.93147"
     y="428.30814"
     width="13.08374"
     height="23.44171"
     fill="#2f2e41"
     id="rect6" />
  <rect
     x="162.09895"
     y="428.30814"
     width="13.08374"
     height="23.44171"
     fill="#2f2e41"
     id="rect8" />
  <ellipse
     cx="146.83461"
     cy="452.02243"
     rx="10.90314"
     ry="4.0886798"
     fill="#2f2e41"
     id="ellipse10" />
  <ellipse
     cx="173.00209"
     cy="451.47726"
     rx="10.90314"
     ry="4.0886798"
     fill="#2f2e41"
     id="ellipse12" />
  <circle
     cx="145.3119"
     cy="388.04114"
     r="14.71922"
     transform="rotate(-1.68323)"
     fill="#ffffff"
     id="circle14" />
  <circle
     cx="156.64742"
     cy="383.60532"
     r="4.9064298"
     fill="#3f3d56"
     id="circle16" />
  <path
     d="m 113.78035,354.45704 c -3.47748,-15.57379 7.63867,-31.31043 24.82861,-35.1488 17.18994,-3.83837 33.94423,5.67511 37.42171,21.24884 3.47748,15.57373 -7.91492,21.31762 -25.10486,25.156 -17.18994,3.83838 -33.668,4.31781 -37.14546,-11.25604 z"
     fill="#e6e6e6"
     id="path18" />
  <ellipse
     cx="-292.52023"
     cy="257.21661"
     rx="6.7600698"
     ry="21.533689"
     transform="rotate(-64.62574)"
     fill="#2f2e41"
     id="ellipse20" />
  <path
     d="m 134.40254,410.04542 c 0,4.21515 10.85327,12.53857 22.89656,12.53857 12.04329,0 23.33515,-11.867 23.33515,-16.08209 0,-4.21509 -11.29193,0.81775 -23.33515,0.81775 -12.04322,0 -22.89656,-1.48938 -22.89656,2.72577 z"
     fill="#ffffff"
     id="path22" />
  <path
     d="m 485.72789,281.18368 -46.77977,46.17 -105.72023,104.32 -2.13965,2.11 -11.91992,11.76 -24.9902,-24.69 -2.20019,-2.17 -45.69,-45.13 h -0.01 l -14.64013,-14.47 -8.6499,-8.55 -25.76025,-25.44 -3.4795,-3.44 -41.06006,-40.56 a 117.65792,117.65792 0 0 1 -20.52,-27.63 c -0.5,-0.91 -0.97022,-1.83 -1.43018,-2.75 A 117.50682,117.50682 0 0 1 255.44812,82.183686 h 0.0102 c 0.37989,0.06 0.75,0.12 1.12989,0.2 a 113.60526,113.60526 0 0 1 11.91015,2.77 117.09292,117.09292 0 0 1 29.11961,12.929997 q 1.4253,0.885 2.82031,1.8 a 118.17183,118.17183 0 0 1 18.46973,15.089997 l 0.3501,-0.35 0.3501,0.35 a 118.54248,118.54248 0 0 1 10.83007,-9.58 c 0.82959,-0.65 1.66993,-1.29 2.50977,-1.91 a 117.44922,117.44922 0 0 1 90.51025,-21.059994 111.92113,111.92113 0 0 1 11.91993,2.78 q 1.96507,0.55509 3.8999,1.2 c 1.04,0.34 2.08008,0.69 3.10986,1.07 a 116.42525,116.42525 0 0 1 24.39014,12.099997 q 2.50488,1.634937 4.93994,3.419997 a 117.54672,117.54672 0 0 1 14.00977,178.19 z"
     fill="#79e08f"
     id="path24" />
  <path
     d="m 438.94812,327.35368 -105.72023,104.32 -2.13965,2.11 -11.91992,11.76 -24.9902,-24.69 -2.20019,-2.17 -45.69,-45.13 c 7.34034,-1.71 18.62012,0.64 22.75,2.68 9.79,4.83 17.84034,12.76 27.78028,17.28 a 46.138,46.138 0 0 0 28.33009,3.13 c 17.81982,-3.74 31.60986,-17.52 43.77,-31.08 12.15966,-13.57 24.58984,-28.13 41.67968,-34.42 9.01028,-3.32 18.68996,-4.07 28.35014,-3.79 z"
     opacity="0.15"
     id="path26" />
  <path
     d="M 515.80796,116.90368 A 118.15747,118.15747 0 0 0 463.27818,86.353686 c -1.31983,-0.37 -2.62988,-0.7 -3.96,-1.01 a 116.83094,116.83094 0 0 0 -17.39006,-2.79 c -1.02,-0.1 -2.04,-0.17 -3.06982,-0.22 a 115.15486,115.15486 0 0 0 -15.43018,0.06 118.39675,118.39675 0 0 0 -74.83984,33.449994 l -0.36035,-0.36 -0.35987,0.36 a 118.61442,118.61442 0 0 0 -46.6997,-28.079994 c -0.99024,-0.32 -1.99024,-0.63 -2.99024,-0.92 a 119.67335,119.67335 0 0 0 -41.62012,-4.45 c -0.38964,0.02 -0.77978,0.05 -1.15966,0.09 a 118.30611,118.30611 0 0 0 -69.39991,29.399994 c -1.82031,1.6 -3.61035,3.28 -5.35009,5.02 a 119.14261,119.14261 0 0 0 -26.64022,127.55 c 0.3501,0.94 0.73,1.87006 1.12988,2.8 a 118.153,118.153 0 0 0 25.51026,37.95 l 38.91992,38.42 3.06006,3.03 84.21972,83.13 2.16992,2.15 22.12012,21.84 17.08985,16.87 167.58011,-165.45 a 119.129,119.129 0 0 0 0,-168.29 z m -2.10984,166.16 -165.47023,163.36 -14.94971,-14.76 -21.6499,-21.37 -2.16993,-2.14 -82.58007,-81.53 -3.01026,-2.97 -41.1001,-40.58 a 115.19343,115.19343 0 0 1 -24.7598,-36.72 c -0.3999,-0.93 -0.78027,-1.86 -1.12988,-2.79 a 116.13377,116.13377 0 0 1 25.88968,-124.54 q 2.79054,-2.79 5.71,-5.34 h 0.0102 a 115.38082,115.38082 0 0 1 66.48,-28.159994 q 4.905,-0.42 9.81982,-0.42 c 1.23,0 2.4502,0.02 3.68018,0.06 a 116.0993,116.0993 0 0 1 29.6499,4.8 c 0.99024,0.29 1.98,0.6 2.96,0.93 a 114.15644,114.15644 0 0 1 29.33008,14.489994 115.61419,115.61419 0 0 1 16.41016,13.64 l 1.06006,1.06 0.34961,-0.35 0.35009,0.35 1.06006,-1.06 a 115.674,115.674 0 0 1 85.71,-33.859994 c 1.27,0.04 2.54,0.1 3.81006,0.19 1.02,0.06 2.04,0.13 3.05029,0.23 a 115.12349,115.12349 0 0 1 19.08985,3.35 c 1.33984,0.34 2.66992,0.71 3.98974,1.12 a 115.9591,115.9591 0 0 1 48.4101,193.009994 z"
     fill="#3f3d56"
     id="path28" />
  <path
     d="m 281.348,89.693686 c -6.41992,5.07 -13.31006,9.749997 -17.48,16.679994 -3.06982,5.12 -4.3999,11.07 -5.39013,16.95 -1.91993,11.44 -2.73975,23.16 -6.5,34.12994 -3.75,10.97 -11.06983,21.45 -21.91993,25.54 -6.73,2.53 -14.1499,2.39 -21.31982,1.9 -17.68994,-1.2 -35.5,-4.37 -51.41992,-12.16 -8.8999,-4.36 -17.53028,-10.24 -27.41992,-10.89 a 25.39538,25.39538 0 0 0 -6.02,0.33 117.494,117.494 0 0 1 131.56984,-79.989934 h 0.0102 c 0.37989,0.06 0.75,0.12 1.12989,0.2 a 113.60526,113.60526 0 0 1 11.91015,2.77 117.48205,117.48205 0 0 1 12.84959,4.54 z"
     opacity="0.15"
     id="path30" />
  <path
     d="m 11.153741,404.3947 a 28.74835,28.74835 0 0 0 27.7608,-4.89018 c 9.72337,-8.16107 12.77191,-21.60637 15.25242,-34.056 l 7.33685,-36.82364 -15.36046,10.57663 c -11.04633,7.60609 -22.34151,15.45585 -29.99,26.47289 -7.6484898,11.01704 -10.9869998,26.0563 -4.8417,37.97726 z"
     fill="#e6e6e6"
     id="path32" />
  <path
     d="m 12.466751,448.97736 c -1.55468,-11.32437 -3.1533098,-22.7942 -2.06278,-34.24 0.96851,-10.16505 4.06971,-20.09347 10.38337,-28.23408 a 46.968,46.968 0 0 1 12.0503,-10.9196 c 1.205,-0.76061 2.31413,1.14911 1.11434,1.90641 a 44.6513,44.6513 0 0 0 -17.66194,21.31042 c -3.84525,9.78036 -4.46274,20.44179 -3.80011,30.83136 0.40072,6.283 1.25,12.52474 2.1058,18.75851 a 1.14389,1.14389 0 0 1 -0.771,1.358 1.11066,1.11066 0 0 1 -1.358,-0.771 z"
     fill="#f2f2f2"
     id="path34" />
  <path
     d="m 27.441181,428.93858 a 21.16242,21.16242 0 0 0 18.439,9.51679 c 9.33414,-0.4431 17.11583,-6.95774 24.12082,-13.14262 l 20.71936,-18.29363 -13.71274,-0.65624 c -9.86142,-0.47193 -19.97725,-0.91214 -29.36992,2.12894 -9.39267,3.04108 -18.05507,10.35987 -19.77258,20.082 z"
     fill="#e6e6e6"
     id="path36" />
  <path
     d="M 8.0731112,455.4872 C 15.556031,442.24665 24.235571,427.53128 39.744451,422.82801 a 35.34188,35.34188 0 0 1 13.32146,-1.37546 c 1.41435,0.12195 1.06117,2.30212 -0.3506,2.18039 a 32.83346,32.83346 0 0 0 -21.259,5.62435 c -5.99423,4.0801 -10.66138,9.75253 -14.61162,15.76788 -2.41964,3.68458 -4.587,7.52548 -6.75478,11.36122 -0.6927698,1.22582 -2.7176998,0.341 -2.0168298,-0.89919 z"
     fill="#f2f2f2"
     id="path38" />
  <circle
     cx="212.55862"
     cy="77.970726"
     r="43.067329"
     fill="#2f2e41"
     id="circle40" />
  <rect
     x="192.93301"
     y="111.77041"
     width="13.08374"
     height="23.44171"
     fill="#2f2e41"
     id="rect42" />
  <rect
     x="219.10049"
     y="111.77041"
     width="13.08374"
     height="23.44171"
     fill="#2f2e41"
     id="rect44" />
  <ellipse
     cx="203.83609"
     cy="135.48471"
     rx="10.90314"
     ry="4.0886798"
     fill="#2f2e41"
     id="ellipse46" />
  <ellipse
     cx="230.00363"
     cy="134.93954"
     rx="10.90314"
     ry="4.0886798"
     fill="#2f2e41"
     id="ellipse48" />
  <circle
     cx="213.64896"
     cy="67.067596"
     r="14.71923"
     fill="#ffffff"
     id="circle50" />
  <ellipse
     cx="105.10903"
     cy="204.12971"
     rx="4.8859401"
     ry="4.9205499"
     transform="rotate(-44.98705)"
     fill="#3f3d56"
     id="ellipse52" />
  <path
     d="m 169.73191,37.919376 c -3.47748,-15.57379 7.63865,-31.3104311 24.82866,-35.1488111 17.19001,-3.83838 33.94421,5.6751105 37.42169,21.2489111 3.47748,15.5738 -7.91492,21.31768 -25.10486,25.156 -17.18994,3.83832 -33.66795,4.31775 -37.14549,-11.2561 z"
     fill="#e6e6e6"
     id="path54" />
  <ellipse
     cx="141.46103"
     cy="575.61774"
     rx="6.7600698"
     ry="21.533689"
     transform="rotate(-39.51212)"
     fill="#2f2e41"
     id="ellipse56" />
  <circle
     cx="442.63452"
     cy="474.08755"
     r="43.067348"
     transform="rotate(-9.21748)"
     fill="#2f2e41"
     id="circle58" />
  <rect
     x="519.40137"
     y="430.86313"
     width="13.08374"
     height="23.44171"
     fill="#2f2e41"
     id="rect60" />
  <rect
     x="493.23386"
     y="430.86313"
     width="13.08374"
     height="23.44171"
     fill="#2f2e41"
     id="rect62" />
  <ellipse
     cx="521.58197"
     cy="454.57742"
     rx="10.90314"
     ry="4.0886798"
     fill="#2f2e41"
     id="ellipse64" />
  <ellipse
     cx="495.41446"
     cy="454.03229"
     rx="10.90314"
     ry="4.0886798"
     fill="#2f2e41"
     id="ellipse66" />
  <path
     d="m 527.93796,374.08521 c -13.57764,-11.21939 -21.12423,-21.50665 -10.95965,-33.80776 10.16458,-12.30111 29.41145,-13.178 42.98908,-1.9586 13.57763,11.2194 16.34444,30.28655 6.17986,42.58766 -10.16458,12.30111 -24.63165,4.39809 -38.20929,-6.8213 z"
     fill="#79e08f"
     id="path68" />
  <circle
     cx="486.74753"
     cy="389.18112"
     r="14.71922"
     transform="rotate(-1.68323)"
     fill="#ffffff"
     id="circle70" />
  <circle
     cx="492.79599"
     cy="371.06989"
     r="4.9064298"
     fill="#3f3d56"
     id="circle72" />
  <path
     d="m 475.72095,386.83851 c -2.98056,2.98056 -5.08788,12.64434 -0.89538,16.83684 4.1925,4.1925 16.51464,-0.26783 19.49516,-3.24834 2.98052,-2.98051 -4.50917,-3.35271 -8.70164,-7.54518 -4.19247,-4.19247 -6.91758,-9.02388 -9.89814,-6.04332 z"
     fill="#ffffff"
     id="path74" />
  <ellipse
     cx="354.92035"
     cy="600.85852"
     rx="6.7600698"
     ry="21.533689"
     transform="rotate(-20.9178)"
     fill="#2f2e41"
     id="ellipse76" />
  <path
     d="M 919.61729,458.03674 H -2.3827117 a 1,1 0 0 1 0,-2 H 919.61729 a 1,1 0 0 1 0,2 z"
     fill="#cccccc"
     id="path78" />
</svg>
