<?xml version="1.0" encoding="UTF-8" standalone="no"?>
<svg
   xmlns:dc="http://purl.org/dc/elements/1.1/"
   xmlns:cc="http://creativecommons.org/ns#"
   xmlns:rdf="http://www.w3.org/1999/02/22-rdf-syntax-ns#"
   xmlns:svg="http://www.w3.org/2000/svg"
   xmlns="http://www.w3.org/2000/svg"
   xmlns:xlink="http://www.w3.org/1999/xlink"
   xmlns:sodipodi="http://sodipodi.sourceforge.net/DTD/sodipodi-0.dtd"
   xmlns:inkscape="http://www.inkscape.org/namespaces/inkscape"
   id="8d45fc85-8f50-4d13-8ede-4efe67a9dde5"
   data-name="Layer 1"
   width="1078.5"
   height="780.36"
   viewBox="0 0 1078.5 780.36"
   version="1.1"
   sodipodi:docname="undraw_Bibliophile_hwqc.svg"
   inkscape:version="1.0.1 (1.0.1+r74)">
  <metadata
     id="metadata183">
    <rdf:RDF>
      <cc:Work
         rdf:about="">
        <dc:format>image/svg+xml</dc:format>
        <dc:type
           rdf:resource="http://purl.org/dc/dcmitype/StillImage" />
      </cc:Work>
    </rdf:RDF>
  </metadata>
  <sodipodi:namedview
     pagecolor="#ffffff"
     bordercolor="#666666"
     borderopacity="1"
     objecttolerance="10"
     gridtolerance="10"
     guidetolerance="10"
     inkscape:pageopacity="0"
     inkscape:pageshadow="2"
     inkscape:window-width="1920"
     inkscape:window-height="1008"
     id="namedview181"
     showgrid="false"
     inkscape:zoom="0.69370487"
     inkscape:cx="649.78932"
     inkscape:cy="330.01594"
     inkscape:window-x="0"
     inkscape:window-y="0"
     inkscape:window-maximized="1"
     inkscape:current-layer="8d45fc85-8f50-4d13-8ede-4efe67a9dde5"
     inkscape:document-rotation="0" />
  <defs
     id="defs10">
    <linearGradient
       id="cb20406f-0184-40ae-b4eb-eddd07e14298"
       x1="600"
       y1="724.97"
       x2="600"
       y2="197.23"
       gradientUnits="userSpaceOnUse">
      <stop
         offset="0"
         stop-color="gray"
         stop-opacity="0.25"
         id="stop2" />
      <stop
         offset="0.54"
         stop-color="gray"
         stop-opacity="0.12"
         id="stop4" />
      <stop
         offset="1"
         stop-color="gray"
         stop-opacity="0.1"
         id="stop6" />
    </linearGradient>
    <linearGradient
       id="bd5348f2-d6e7-4b10-83c1-a84cbaf770d6"
       x1="906.56"
       y1="809.07"
       x2="906.56"
       y2="164.43"
       gradientTransform="matrix(-1, 0, 0, 1, 1767, 0)"
       xlink:href="#cb20406f-0184-40ae-b4eb-eddd07e14298" />
  </defs>
  <title
     id="title12">Bibliophile</title>
  <path
     d="m 1026.8503,338.70734 c -30.88529,65.90002 -9.8191,144.5156 18.656,204.45421 9.5323,20.07028 20.178,41.13168 19.026,65.66595 -1.4101,29.99755 -20.4181,56.73897 -41.339,73.77732 -38.14422,31.08111 -86.3332,38.91199 -125.41543,20.38823 -33.82334,-16.00139 -59.98219,-49.70318 -94.20873,-64.45123 -57.34146,-24.67352 -124.73413,8.33634 -180.97775,50.83171 -39.79739,30.05293 -82.9553,66.84388 -125.87039,57.91971 -30.19625,-6.27974 -53.16229,-34.99536 -67.24261,-68.17898 -6.78579,-16.01681 -12.25045,-33.85828 -23.5117,-44.99672 -6.69825,-6.61715 -15.00919,-10.37108 -23.43844,-13.15981 C 305.59036,595.52369 215.4333,644.08797 140.17991,613.19382 89.348063,592.32502 53.155628,537.08679 33.834126,474.58847 14.512643,412.09016 9.9933538,342.34188 7.4620852,273.33587 5.704407,224.29621 5.5989507,171.47432 27.304366,127.48936 50.256925,80.964971 94.283685,54.220468 135.87784,50.841659 c 41.59418,-3.378819 81.03809,13.507853 116.42666,36.340484 44.2348,28.535517 86.33472,67.528157 137.81839,70.149667 35.02515,1.79633 70.43205,-13.70664 105.44195,-25.12314 58.52956,-19.0875 118.05665,-27.09751 177.2677,-34.281869 56.69728,-6.88011 113.87672,-13.050859 169.19436,-4.674425 39.14863,5.926618 71.9423,26.873154 109.35065,37.650574 24.38616,7.02352 50.04735,3.92315 73.51665,14.89494 28.8969,13.46503 56.8914,42.94021 53.6144,86.95376 -3.1165,41.85743 -35.2744,70.99151 -51.6583,105.95569 z"
     fill="#6ebf7e"
     opacity="0.1"
     id="path14"
     style="stroke-width:1.14334"
     sodipodi:nodetypes="ccccccccccccsccscccccccsc" />
  <path
     d="m 1081.0682,639.20033 -87.61,-385.48 h -32.55 c -1.3,-14.73 -2.17,-29 -2.5,-42.44 0,0 -118,25.82 -212.1,-48.88 -94.1,-74.700005 -204.73,6.46 -204.73,6.46 l -0.43,-0.31 v -0.15 0.19 c -7.68,-5.44 -113.66,-78.070005 -204.27,-6.13 -94.06,74.7 -212.1,48.88 -212.1,48.88 -0.33,13.61 -1.21,28 -2.54,42.87 h -30.2 l -89.470001,386.38 c 0,0 363.700001,13.62 491.150001,1.06 4.57,9.66 24.27,16.92 47.87,16.92 26.52,0 48.09,-9.17 48.84,-20.6 99.21,7.55 312.69,19.62 490.64,1.23 z"
     fill="url(#cb20406f-0184-40ae-b4eb-eddd07e14298)"
     id="path90"
     style="opacity:0.523939;fill:#233a64;fill-opacity:0.25"
     sodipodi:nodetypes="ccccsccccccccccscc" />
  <path
     d="m 101.4082,257.11033 -87.590001,378.34 c 0,0 482.170001,18.06 521.000001,-7.22 0,0 299.33,30.25 535,5.87 l -85.78,-377.43 z"
     fill="#e2e2ec"
     id="path92"
     sodipodi:nodetypes="cccccc" />
  <path
     d="m 131.2082,270.18033 -81.660001,352.73 c 0,0 449.540001,16.84 485.740001,-6.73 0,0 279.07,28.2 498.79,5.47 l -80,-351.89 z"
     opacity="0.1"
     id="path94"
     sodipodi:nodetypes="cccccc" />
  <path
     d="m 949.7282,215.13033 c 0,0 -115.58,25.28 -207.68,-47.86 -92.1,-73.140005 -200.46,6.32 -200.46,6.32 0,0 -108.35,-79.460005 -200.45,-6.32 -92.1,73.14 -207.68,47.86 -207.68,47.86 -3.64,147.18 -72.230001,385.56 -72.230001,385.56 0,0 126.410001,34.31 293.460001,-35.21 167.05,-69.52 186.91,24.38 186.91,24.38 0,0 19.86,-93.91 186.91,-24.38 167.05,69.53 293.46,35.21 293.46,35.21 0,0 -68.63,-238.38 -72.24,-385.56 z"
     fill="#f1f2fb"
     id="path96"
     sodipodi:nodetypes="cscsccscscc" />
  <path
     d="m 318.5682,592.59033 c 0,0 152.6,-34.31 223,16.25 0,0 67.72,-61.4 224.83,-13.54"
     opacity="0.1"
     id="path98"
     sodipodi:nodetypes="ccc" />
  <ellipse
     cx="541.5882"
     cy="632.29034"
     rx="47.860001"
     ry="20.77"
     fill="#e8eaf8"
     id="ellipse100" />
  <path
     d="m 541.1382,173.14033 c 0,0 17.12944,174.27 0.44933,419.87"
     opacity="0.1"
     id="path102"
     style="stroke-width:0.70658"
     sodipodi:nodetypes="cc" />
  <path
     d="m 166.5182,269.76033 c 0,0 71.87,16.7 134.08,0 62.21,-16.7 176.43,-71.33 214,0"
     fill="none"
     stroke="#000000"
     stroke-miterlimit="10"
     stroke-width="4"
     opacity="0.1"
     id="path104"
     sodipodi:nodetypes="csc" />
  <path
     d="m 162.36798,327.62902 c 0,0 71.87,16.7 134.08,0 62.21,-16.7 176.43,-71.33 214,0"
     fill="none"
     stroke="#000000"
     stroke-miterlimit="10"
     stroke-width="4"
     opacity="0.1"
     id="path876"
     sodipodi:nodetypes="csc" />
  <path
     d="m 159.40901,391.75465 c 0,0 71.87,16.7 134.08,0 62.21,-16.7 176.43,-71.33 214,0"
     fill="none"
     stroke="#000000"
     stroke-miterlimit="10"
     stroke-width="4"
     opacity="0.1"
     id="path878"
     sodipodi:nodetypes="csc" />
  <path
     d="m 154.36861,463.55908 c 0,0 71.87,16.7 134.08,0 62.21,-16.7 176.43,-71.33 214,0"
     fill="none"
     stroke="#000000"
     stroke-miterlimit="10"
     stroke-width="4"
     opacity="0.1"
     id="path880"
     sodipodi:nodetypes="csc" />
  <path
     d="m 922.25584,269.83978 c 0,0 -71.87,16.7 -134.08,0 -62.21,-16.7 -176.43,-71.33 -214,0"
     fill="none"
     stroke="#000000"
     stroke-miterlimit="10"
     stroke-width="4"
     opacity="0.1"
     id="path882" />
  <path
     d="m 926.40604,327.70847 c 0,0 -71.87,16.7 -134.08,0 -62.21,-16.7 -176.43,-71.33 -214,0"
     fill="none"
     stroke="#000000"
     stroke-miterlimit="10"
     stroke-width="4"
     opacity="0.1"
     id="path884" />
  <path
     d="m 929.36504,391.8341 c 0,0 -71.87,16.7 -134.08,0 -62.21,-16.7 -176.43,-71.33 -214,0"
     fill="none"
     stroke="#000000"
     stroke-miterlimit="10"
     stroke-width="4"
     opacity="0.1"
     id="path886" />
  <path
     d="m 934.40544,463.63853 c 0,0 -71.87,16.7 -134.08,0 -62.21,-16.7 -176.43,-71.33 -214,0"
     fill="none"
     stroke="#000000"
     stroke-miterlimit="10"
     stroke-width="4"
     opacity="0.1"
     id="path888" />
</svg>
